<?xml version="1.0" encoding="utf-8"?>
<svg width="40px" height="40px" viewBox="0 0 40 40" version="1.1" xmlns:xlink="http://www.w3.org/1999/xlink" xmlns="http://www.w3.org/2000/svg">
  <g id="Group-2">
    <path d="M4.999 0L35.001 0Q35.1237 0 35.2463 0.00602151Q35.3689 0.012043 35.491 0.0240715Q35.6131 0.0361001 35.7345 0.0541066Q35.8559 0.0721132 35.9762 0.0960544Q36.0966 0.119996 36.2157 0.149814Q36.3347 0.179632 36.4521 0.215255Q36.5696 0.250879 36.6851 0.292221Q36.8007 0.333564 36.914 0.380526Q37.0274 0.427489 37.1383 0.479957Q37.2493 0.532426 37.3575 0.590276Q37.4657 0.648125 37.571 0.711215Q37.6763 0.774305 37.7783 0.842483Q37.8803 0.910662 37.9789 0.983765Q38.0775 1.05687 38.1723 1.13472Q38.2672 1.21257 38.3581 1.29499Q38.4491 1.3774 38.5358 1.46417Q38.6226 1.55095 38.705 1.64188Q38.7874 1.73281 38.8653 1.82767Q38.9431 1.92253 39.0162 2.0211Q39.0893 2.11967 39.1575 2.2217Q39.2257 2.32374 39.2888 2.429Q39.3519 2.53426 39.4097 2.64249Q39.4676 2.75072 39.52 2.86165Q39.5725 2.97259 39.6195 3.08597Q39.6664 3.19934 39.7078 3.31489Q39.7491 3.43043 39.7847 3.54787Q39.8204 3.6653 39.8502 3.78434Q39.88 3.90338 39.9039 4.02374Q39.9279 4.1441 39.9459 4.26549Q39.9639 4.38688 39.9759 4.50901Q39.988 4.63114 39.994 4.75371Q40 4.87628 40 4.999L40 35.001Q40 35.1237 39.994 35.2463Q39.988 35.3689 39.9759 35.491Q39.9639 35.6131 39.9459 35.7345Q39.9279 35.8559 39.9039 35.9762Q39.88 36.0966 39.8502 36.2157Q39.8204 36.3347 39.7847 36.4521Q39.7491 36.5696 39.7078 36.6851Q39.6664 36.8007 39.6195 36.914Q39.5725 37.0274 39.52 37.1383Q39.4676 37.2493 39.4097 37.3575Q39.3519 37.4657 39.2888 37.571Q39.2257 37.6763 39.1575 37.7783Q39.0893 37.8803 39.0162 37.9789Q38.9431 38.0775 38.8653 38.1723Q38.7874 38.2672 38.705 38.3581Q38.6226 38.4491 38.5358 38.5358Q38.4491 38.6226 38.3581 38.705Q38.2672 38.7874 38.1723 38.8653Q38.0775 38.9431 37.9789 39.0162Q37.8803 39.0893 37.7783 39.1575Q37.6763 39.2257 37.571 39.2888Q37.4657 39.3519 37.3575 39.4097Q37.2493 39.4676 37.1383 39.52Q37.0274 39.5725 36.914 39.6195Q36.8007 39.6664 36.6851 39.7078Q36.5696 39.7491 36.4521 39.7847Q36.3347 39.8204 36.2156 39.8502Q36.0966 39.88 35.9762 39.9039Q35.8559 39.9279 35.7345 39.9459Q35.6131 39.9639 35.491 39.9759Q35.3689 39.988 35.2463 39.994Q35.1237 40 35.001 40L4.999 40Q4.87628 40 4.75371 39.994Q4.63114 39.988 4.50901 39.9759Q4.38688 39.9639 4.26549 39.9459Q4.1441 39.9279 4.02374 39.9039Q3.90338 39.88 3.78434 39.8502Q3.6653 39.8204 3.54787 39.7847Q3.43043 39.7491 3.31489 39.7078Q3.19934 39.6664 3.08597 39.6195Q2.97259 39.5725 2.86165 39.52Q2.75072 39.4676 2.64249 39.4097Q2.53426 39.3519 2.429 39.2888Q2.32374 39.2257 2.2217 39.1575Q2.11967 39.0893 2.0211 39.0162Q1.92253 38.9431 1.82767 38.8653Q1.73281 38.7874 1.64188 38.705Q1.55095 38.6226 1.46417 38.5358Q1.3774 38.4491 1.29499 38.3581Q1.21257 38.2672 1.13472 38.1723Q1.05687 38.0775 0.983765 37.9789Q0.910662 37.8803 0.842483 37.7783Q0.774305 37.6763 0.711215 37.571Q0.648125 37.4657 0.590276 37.3575Q0.532426 37.2493 0.479957 37.1383Q0.427489 37.0274 0.380526 36.914Q0.333564 36.8007 0.292221 36.6851Q0.250879 36.5696 0.215255 36.4521Q0.179632 36.3347 0.149814 36.2156Q0.119996 36.0966 0.0960544 35.9762Q0.0721132 35.8559 0.0541066 35.7345Q0.0361001 35.6131 0.0240715 35.491Q0.012043 35.3689 0.00602151 35.2463Q0 35.1237 0 35.001L0 4.999Q0 4.87628 0.00602151 4.75371Q0.012043 4.63114 0.0240715 4.50901Q0.0361001 4.38688 0.0541066 4.26549Q0.0721132 4.1441 0.0960544 4.02374Q0.119996 3.90338 0.149814 3.78434Q0.179632 3.6653 0.215255 3.54787Q0.250879 3.43043 0.292221 3.31489Q0.333564 3.19934 0.380526 3.08597Q0.427489 2.97259 0.479957 2.86165Q0.532426 2.75072 0.590276 2.64249Q0.648125 2.53426 0.711215 2.429Q0.774305 2.32374 0.842483 2.2217Q0.910662 2.11967 0.983765 2.0211Q1.05687 1.92253 1.13472 1.82767Q1.21257 1.73281 1.29499 1.64188Q1.3774 1.55095 1.46417 1.46417Q1.55095 1.3774 1.64188 1.29499Q1.73281 1.21257 1.82767 1.13472Q1.92253 1.05687 2.0211 0.983765Q2.11967 0.910662 2.2217 0.842483Q2.32374 0.774305 2.429 0.711215Q2.53426 0.648125 2.64249 0.590276Q2.75072 0.532426 2.86165 0.479957Q2.97259 0.427489 3.08597 0.380526Q3.19934 0.333564 3.31489 0.292221Q3.43043 0.250879 3.54787 0.215255Q3.6653 0.179632 3.78434 0.149814Q3.90338 0.119996 4.02374 0.0960544Q4.1441 0.0721132 4.26549 0.0541066Q4.38688 0.0361001 4.50901 0.0240715Q4.63114 0.012043 4.75371 0.00602151Q4.87628 0 4.999 0Z" id="Rectangle" fill="#EAEFF4" fill-rule="evenodd" stroke="none" />
    <g id="Group-Copy" transform="translate(8 8)">
      <path d="M1.999 0L24 0L24 4.8L0 4.8L0 1.999Q0 1.9008 0.00962573 1.80306Q0.0192515 1.70533 0.0384102 1.60901Q0.057569 1.5127 0.0860763 1.41872Q0.114584 1.32474 0.152165 1.23402Q0.189746 1.14329 0.236039 1.05668Q0.282333 0.970069 0.336892 0.888415Q0.391452 0.806761 0.453752 0.730848Q0.516052 0.654935 0.585494 0.585494Q0.654935 0.516052 0.730848 0.453752Q0.806761 0.391452 0.888415 0.336892Q0.970069 0.282333 1.05668 0.236039Q1.14329 0.189746 1.23402 0.152165Q1.32474 0.114584 1.41872 0.0860763Q1.5127 0.057569 1.60901 0.0384102Q1.70533 0.0192515 1.80306 0.00962573Q1.9008 0 1.999 0Z" id="Rectangle-4" fill="#009FDC" fill-rule="evenodd" stroke="none" />
      <path d="M0 9.6L19.2 9.6L14.4 14.4L0 14.4L0 9.6Z" id="Rectangle-4-Copy-2" fill="#0055CA" fill-rule="evenodd" stroke="none" />
      <path d="M0 19.2L24 19.2L24 24L1.999 24Q1.9008 24 1.80306 23.9904Q1.70533 23.9807 1.60901 23.9616Q1.5127 23.9424 1.41872 23.9139Q1.32474 23.8854 1.23402 23.8478Q1.14329 23.8103 1.05668 23.764Q0.970069 23.7177 0.888415 23.6631Q0.806761 23.6085 0.730848 23.5462Q0.654935 23.4839 0.585494 23.4145Q0.516052 23.3451 0.453752 23.2692Q0.391452 23.1932 0.336892 23.1116Q0.282333 23.0299 0.236039 22.9433Q0.189746 22.8567 0.152165 22.766Q0.114584 22.6753 0.0860763 22.5813Q0.057569 22.4873 0.0384102 22.391Q0.0192515 22.2947 0.00962573 22.1969Q0 22.0992 0 22.001L0 19.2Z" id="Rectangle-4-Copy" fill="#0F4170" fill-rule="evenodd" stroke="none" />
    </g>
  </g>
</svg>